<?xml version="1.0" encoding="iso-8859-1"?>
<!-- Generator: Adobe Illustrator 18.0.0, SVG Export Plug-In . SVG Version: 6.00 Build 0)  -->
<!DOCTYPE svg PUBLIC "-//W3C//DTD SVG 1.1//EN" "http://www.w3.org/Graphics/SVG/1.1/DTD/svg11.dtd">
<svg xmlns="http://www.w3.org/2000/svg" xmlns:xlink="http://www.w3.org/1999/xlink" version="1.1" id="Capa_1" x="0px" y="0px" viewBox="0 0 221.333 221.333" style="enable-background:new 0 0 221.333 221.333;" xml:space="preserve" width="512px" height="512px">
<path d="M106.167,110.667h115.166v0c0-10.398-1.437-20.459-4.118-30h-45.048c-4.143,0-7.5-3.357-7.5-7.5s3.357-7.5,7.5-7.5h39.628  C194.552,26.975,155.761,0,110.667,0c-39.004,0-73.291,20.18-93,50.667h77.5c4.143,0,7.5,3.357,7.5,7.5s-3.357,7.5-7.5,7.5H9.538  c-4.182,9.383-7.093,19.456-8.522,30h21.151c4.143,0,7.5,3.357,7.5,7.5s-3.357,7.5-7.5,7.5H0c0,22.116,6.491,42.714,17.666,60h22.5  c4.143,0,7.5,3.357,7.5,7.5s-3.357,7.5-7.5,7.5H29.299c20.221,21.927,49.188,35.666,81.367,35.666  c24.026,0,46.262-7.66,64.405-20.666h-32.905c-4.143,0-7.5-3.357-7.5-7.5s3.357-7.5,7.5-7.5h49.867  c8.116-8.8,14.822-18.919,19.761-30h-51.628c-4.143,0-7.5-3.357-7.5-7.5s3.357-7.5,7.5-7.5h57.048c1.369-4.872,2.409-9.881,3.102-15  H106.167c-4.143,0-7.5-3.357-7.5-7.5S102.024,110.667,106.167,110.667z M114.167,20.667h17c4.143,0,7.5,3.357,7.5,7.5  s-3.357,7.5-7.5,7.5h-17c-4.143,0-7.5-3.357-7.5-7.5S110.024,20.667,114.167,20.667z M107.167,155.667c4.143,0,7.5,3.357,7.5,7.5  s-3.357,7.5-7.5,7.5h-39c-4.143,0-7.5-3.357-7.5-7.5s3.357-7.5,7.5-7.5H107.167z M86.167,95.667c-4.143,0-7.5-3.357-7.5-7.5  s3.357-7.5,7.5-7.5h45c4.143,0,7.5,3.357,7.5,7.5s-3.357,7.5-7.5,7.5H86.167z" fill="#FFFFFF"/>
<g>
</g>
<g>
</g>
<g>
</g>
<g>
</g>
<g>
</g>
<g>
</g>
<g>
</g>
<g>
</g>
<g>
</g>
<g>
</g>
<g>
</g>
<g>
</g>
<g>
</g>
<g>
</g>
<g>
</g>
</svg>
