<?xml version="1.0" encoding="iso-8859-1"?>
<!-- Generator: Adobe Illustrator 19.0.0, SVG Export Plug-In . SVG Version: 6.00 Build 0)  -->
<svg xmlns="http://www.w3.org/2000/svg" xmlns:xlink="http://www.w3.org/1999/xlink" version="1.1" id="Layer_1" x="0px" y="0px" viewBox="0 0 512 512" style="enable-background:new 0 0 512 512;" xml:space="preserve" width="512px" height="512px">
<g>
	<g>
		<path d="M483.074,310.087c4.135-17.366,6.338-35.474,6.338-54.087c0-18.614-2.203-36.721-6.34-54.088l24.748-21.746    L447.584,75.833l-31.351,10.604c-26.198-24.77-58.117-43.544-93.535-54.123L316.235,0H195.765l-6.463,32.315    c-35.42,10.579-67.339,29.353-93.536,54.123L64.416,75.833L4.18,180.164l24.748,21.749c-4.137,17.366-6.34,35.473-6.34,54.087    c0,18.613,2.203,36.719,6.338,54.085L4.179,331.833l60.235,104.331l31.348-10.606c26.198,24.772,58.118,43.547,93.538,54.126    L195.765,512h120.471l6.463-32.315c35.42-10.579,67.339-29.354,93.536-54.126l31.351,10.606l60.235-104.331L483.074,310.087z     M323.765,105.412c20.792,0,37.647,16.855,37.647,37.647c0,20.792-16.855,37.647-37.647,37.647s-37.647-16.855-37.647-37.647    C286.118,122.267,302.973,105.412,323.765,105.412z M128,331.294c-12.475,0-22.588-10.114-22.588-22.588    s10.114-22.588,22.588-22.588s22.588,10.113,22.588,22.588S140.475,331.294,128,331.294z M180.706,263.529    c-37.365,0-67.765-30.399-67.765-67.765S143.34,128,180.706,128s67.765,30.399,67.765,67.765S218.071,263.529,180.706,263.529z     M293.647,421.647C272.855,421.647,256,404.792,256,384c0-20.793,16.855-37.647,37.647-37.647    c20.793,0,37.647,16.854,37.647,37.647C331.294,404.792,314.44,421.647,293.647,421.647z M368.941,346.353    c-12.475,0-22.588-10.114-22.588-22.588s10.113-22.588,22.588-22.588s22.588,10.114,22.588,22.588    S381.416,346.353,368.941,346.353z" fill="#FFFFFF"/>
	</g>
</g>
<g>
	<g>
		<path d="M180.706,173.176c-12.455,0-22.588,10.133-22.588,22.588s10.133,22.588,22.588,22.588s22.588-10.133,22.588-22.588    S193.161,173.176,180.706,173.176z" fill="#FFFFFF"/>
	</g>
</g>
<g>
</g>
<g>
</g>
<g>
</g>
<g>
</g>
<g>
</g>
<g>
</g>
<g>
</g>
<g>
</g>
<g>
</g>
<g>
</g>
<g>
</g>
<g>
</g>
<g>
</g>
<g>
</g>
<g>
</g>
</svg>
