<?xml version="1.0" encoding="iso-8859-1"?>
<!-- Generator: Adobe Illustrator 16.0.0, SVG Export Plug-In . SVG Version: 6.00 Build 0)  -->
<!DOCTYPE svg PUBLIC "-//W3C//DTD SVG 1.1//EN" "http://www.w3.org/Graphics/SVG/1.1/DTD/svg11.dtd">
<svg xmlns="http://www.w3.org/2000/svg" xmlns:xlink="http://www.w3.org/1999/xlink" version="1.1" id="Capa_1" x="0px" y="0px" width="512px" height="512px" viewBox="0 0 46.05 46.05" style="enable-background:new 0 0 46.05 46.05;" xml:space="preserve">
<g>
	<g>
		<path d="M31.531,20.195c-0.968,0-1.941,0.323-2.746,0.986c-1.845,1.518-2.107,4.244-0.59,6.087    c0.854,1.039,2.093,1.575,3.342,1.575c0.968,0,1.941-0.322,2.746-0.985c1.843-1.519,2.107-4.244,0.589-6.087    C34.018,20.732,32.779,20.194,31.531,20.195z" fill="#FFFFFF"/>
		<g>
			<path d="M45.229,4.742c-0.504-0.612-1.476-1.34-3.238-1.34c-2.78,0-6.838,1.783-11.144,4.338c-0.16,0.095-0.15,0.33,0.017,0.413     c1.169,0.58,2.281,1.308,3.311,2.165c0.075,0.062,0.181,0.072,0.266,0.025c3.074-1.697,5.534-2.641,7.041-2.833     c0.264-0.034,0.475,0.219,0.389,0.47c-0.563,1.651-2.737,4.864-6.614,9.014c1.034,0.511,1.98,1.241,2.762,2.189     c0.109,0.134,0.214,0.271,0.313,0.41c1.323-1.42,2.515-2.802,3.543-4.118C45.929,10.296,46.993,6.884,45.229,4.742z" fill="#FFFFFF"/>
			<path d="M25.053,29.858c-2.948-3.58-2.436-8.872,1.146-11.82c1.563-1.287,3.453-1.915,5.332-1.915     c0.789,0,1.577,0.113,2.338,0.333c-0.224-0.367-0.467-0.726-0.73-1.075c-0.105-0.139-0.214-0.275-0.324-0.411     c-4.452-5.405-12.442-6.177-17.847-1.727c-5.394,4.441-6.175,12.408-1.754,17.813c0.01,0.011,0.018,0.021,0.026,0.033     c0.635,0.77,1.341,1.444,2.101,2.024c0.13,0.099,0.122,0.297-0.016,0.386c-4.973,3.168-8.933,4.899-10.952,5.086     c-0.166,0.015-0.295-0.141-0.248-0.301c0.36-1.212,1.765-3.521,4.263-6.506c0.063-0.074,0.072-0.18,0.025-0.265     c-0.644-1.175-1.136-2.397-1.479-3.653c-0.05-0.18-0.278-0.234-0.402-0.095c-0.854,0.963-1.643,1.905-2.354,2.813     c-4.055,5.18-5.121,8.59-3.356,10.732c0.503,0.611,1.475,1.336,3.238,1.336c3.78,0,9.916-3.335,15.83-7.348h0.001     c3.741,0.918,7.864,0.193,11.093-2.409C28.751,32.743,26.584,31.718,25.053,29.858z" fill="#FFFFFF"/>
		</g>
	</g>
</g>
<g>
</g>
<g>
</g>
<g>
</g>
<g>
</g>
<g>
</g>
<g>
</g>
<g>
</g>
<g>
</g>
<g>
</g>
<g>
</g>
<g>
</g>
<g>
</g>
<g>
</g>
<g>
</g>
<g>
</g>
</svg>
