<?xml version="1.0" encoding="iso-8859-1"?>
<!-- Generator: Adobe Illustrator 17.1.0, SVG Export Plug-In . SVG Version: 6.00 Build 0)  -->
<!DOCTYPE svg PUBLIC "-//W3C//DTD SVG 1.1//EN" "http://www.w3.org/Graphics/SVG/1.1/DTD/svg11.dtd">
<svg xmlns="http://www.w3.org/2000/svg" xmlns:xlink="http://www.w3.org/1999/xlink" version="1.1" id="Capa_1" x="0px" y="0px" viewBox="0 0 219.583 219.583" style="enable-background:new 0 0 219.583 219.583;" xml:space="preserve" width="512px" height="512px">
<path d="M213.818,75.319c-1.402-1.426-3.316-2.233-5.316-2.242c-0.011,0-0.021,0-0.032,0c-1.989,0-3.896,0.79-5.303,2.196  l-38.814,38.815l-14.987-2.878c-2.443-0.47-4.959,0.304-6.718,2.062l-17.013,17.012l-7.157-7.157  c2.188-2.758,3.384-6.143,3.384-9.716c0-4.19-1.632-8.129-4.594-11.092c-2.962-2.962-6.901-4.594-11.091-4.594  c-3.573,0-6.959,1.197-9.717,3.384l-7.157-7.157l17.012-17.012c1.759-1.759,2.531-4.275,2.062-6.719l-2.878-14.986l38.814-38.814  c2.929-2.93,2.874-7.733-0.056-10.663C140.543,2.045,135.606,0,130.353,0c-2.35,0-4.659,0.416-6.863,1.238L50.662,28.383  c-1.008,0.375-1.923,0.964-2.684,1.724l-33.05,33.049c-0.98,0.98-1.669,2.213-1.992,3.562L0.208,120.015  c-0.605,2.535,0.148,5.202,1.992,7.045l10.433,10.434c1.406,1.407,3.314,2.197,5.303,2.197s3.897-0.79,5.303-2.196l18.934-18.934  l19.133,19.133c-2.45,5.723-1.354,12.614,3.31,17.278c2.962,2.962,6.901,4.594,11.091,4.594c2.167,0,4.263-0.445,6.195-1.276  l19.125,19.125l-18.934,18.933c-2.929,2.93-2.929,7.678,0,10.607l10.433,10.433c1.423,1.423,3.337,2.196,5.303,2.196  c0.58,0,1.165-0.067,1.742-0.205l53.298-12.729c1.348-0.322,2.581-1.012,3.561-1.991l33.05-33.05  c0.761-0.761,1.349-1.677,1.725-2.685l27.144-72.827C221.028,88.907,219.254,80.756,213.818,75.319z M109.342,146.577  c-1.419,1.42-2.211,3.35-2.197,5.357l0.075,10.458l-13.921-13.921l14.655-14.655l7.075,7.075L109.342,146.577z M85.77,111.634  l-14.655,14.655l-13.921-13.921l10.459,0.074c2.042,0.007,3.938-0.777,5.356-2.196l5.686-5.686L85.77,111.634z" fill="#FFFFFF"/>
<g>
</g>
<g>
</g>
<g>
</g>
<g>
</g>
<g>
</g>
<g>
</g>
<g>
</g>
<g>
</g>
<g>
</g>
<g>
</g>
<g>
</g>
<g>
</g>
<g>
</g>
<g>
</g>
<g>
</g>
</svg>
