<?xml version="1.0" encoding="iso-8859-1"?>
<!-- Generator: Adobe Illustrator 19.0.0, SVG Export Plug-In . SVG Version: 6.00 Build 0)  -->
<svg xmlns="http://www.w3.org/2000/svg" xmlns:xlink="http://www.w3.org/1999/xlink" version="1.1" id="Layer_1" x="0px" y="0px" viewBox="0 0 297 297" style="enable-background:new 0 0 297 297;" xml:space="preserve" width="512px" height="512px">
<g>
	<g>
		<g>
			<path d="M94.088,148.57l48.923,32.616c1.66,1.107,3.571,1.66,5.482,1.66c1.911,0,3.822-0.553,5.482-1.66l48.923-32.615     c2.75-1.833,4.401-4.919,4.401-8.223V96.86c0-3.645-2.007-6.994-5.22-8.714c-3.215-1.722-7.115-1.533-10.146,0.49l-17.25,11.499     l0.001-57.636c0-14.442-11.749-26.191-26.191-26.191c-14.441,0-26.19,11.749-26.192,26.19V42.5v57.635l-17.25-11.499     c-3.031-2.023-6.932-2.212-10.146-0.49c-3.213,1.72-5.22,5.069-5.22,8.714v43.488C89.687,143.652,91.339,146.738,94.088,148.57z      M109.454,115.328l17.25,11.499c3.032,2.022,6.931,2.213,10.146,0.49c3.213-1.72,5.22-5.069,5.22-8.714V42.501     c0-3.543,2.883-6.425,6.425-6.425c3.542,0,6.424,2.882,6.424,6.424l-0.001,76.103c0,3.645,2.006,6.994,5.22,8.714     c3.215,1.723,7.114,1.532,10.146-0.49l17.25-11.499v19.731l-39.04,26.025l-39.04-26.026V115.328z" fill="#FFFFFF"/>
			<path d="M254.501,195.693H42.499C19.065,195.693,0,214.758,0,238.193c0,23.434,19.065,42.499,42.499,42.499h212.002     c23.434,0,42.499-19.065,42.499-42.499C297,214.758,277.935,195.693,254.501,195.693z M254.501,260.924H42.499     c-12.535,0-22.732-10.197-22.732-22.732s10.197-22.732,22.732-22.732h212.002c12.535,0,22.732,10.197,22.732,22.732     S267.036,260.924,254.501,260.924z" fill="#FFFFFF"/>
			<path d="M246.344,228.31c-2.599,0-5.14,1.057-6.988,2.896c-1.839,1.839-2.896,4.389-2.896,6.988s1.057,5.149,2.896,6.987     c1.848,1.839,4.389,2.897,6.988,2.897s5.149-1.058,6.987-2.897c1.839-1.838,2.897-4.388,2.897-6.987s-1.058-5.149-2.897-6.988     C251.493,229.365,248.943,228.31,246.344,228.31z" fill="#FFFFFF"/>
			<path d="M213.728,228.31c-2.599,0-5.149,1.057-6.988,2.896s-2.896,4.389-2.896,6.988s1.057,5.149,2.896,6.987     c1.839,1.839,4.389,2.897,6.988,2.897s5.149-1.058,6.987-2.897c1.848-1.838,2.897-4.388,2.897-6.987s-1.048-5.149-2.897-6.988     C218.878,229.365,216.328,228.31,213.728,228.31z" fill="#FFFFFF"/>
		</g>
	</g>
</g>
<g>
</g>
<g>
</g>
<g>
</g>
<g>
</g>
<g>
</g>
<g>
</g>
<g>
</g>
<g>
</g>
<g>
</g>
<g>
</g>
<g>
</g>
<g>
</g>
<g>
</g>
<g>
</g>
<g>
</g>
</svg>
